<svg width="32" height="32" viewBox="0 0 32 32" fill="none" xmlns="http://www.w3.org/2000/svg">
<path d="M21.469 23.907L17.874 27.38C17.25 28.005 16.39 28.265 15.442 28.265C14.494 28.265 13.635 28.005 13.01 27.38L7.234 21.568C6.614 20.943 6.297 20.031 6.297 19.083C6.297 18.131 6.614 17.271 7.234 16.651L12.994 10.807C13.614 10.188 14.494 9.948 15.442 9.948C16.39 9.948 17.25 10.208 17.874 10.833L21.469 14.306C22.156 14.994 23.292 14.969 24.005 14.254C24.713 13.541 24.74 12.406 24.052 11.718L20.579 8.207C19.6794 7.31962 18.5501 6.70077 17.318 6.42L20.605 3.087C21.293 2.4 21.272 1.264 20.558 0.551C19.844 -0.162 18.709 -0.184 18.022 0.499L4.553 13.968C3.246 15.28 2.564 17.081 2.564 19.081C2.564 21.077 3.247 22.941 4.553 24.249L10.35 30.061C11.657 31.368 13.465 31.998 15.465 31.998C17.46 31.998 19.266 31.315 20.574 30.009L24.053 26.488C24.741 25.805 24.714 24.671 24.001 23.957C23.288 23.243 22.152 23.217 21.47 23.905L21.469 23.907ZM27.749 17.349H14.218C13.286 17.349 12.526 18.15 12.526 19.14C12.526 20.131 13.286 20.937 14.218 20.937H27.749C28.682 20.937 29.442 20.13 29.442 19.14C29.442 18.151 28.682 17.349 27.749 17.349Z" fill="#ABB2BF"/>
</svg>
